<svg width="16" height="16" viewBox="0 0 16 16" fill="none" xmlns="http://www.w3.org/2000/svg">
<path d="M8 12.5C7.72667 12.5 7.5 12.2733 7.5 12V10C7.5 9.72667 7.72667 9.5 8 9.5C8.27333 9.5 8.5 9.72667 8.5 10V12C8.5 12.2733 8.27333 12.5 8 12.5Z" fill="#4E5556"/>
<path d="M11.7333 15.04H4.26664C3.05331 15.04 1.94664 14.1067 1.74664 12.9133L0.859974 7.59999C0.713307 6.77333 1.11997 5.71333 1.77997 5.18666L6.39997 1.48666C7.29331 0.76666 8.69997 0.773327 9.59997 1.49333L14.22 5.18666C14.8733 5.71333 15.2733 6.77333 15.14 7.59999L14.2533 12.9067C14.0533 14.0867 12.92 15.04 11.7333 15.04ZM7.99331 1.95333C7.63997 1.95333 7.28664 2.05999 7.02664 2.26666L2.40664 5.97333C2.03331 6.27333 1.76664 6.96666 1.84664 7.43999L2.73331 12.7467C2.85331 13.4467 3.55331 14.04 4.26664 14.04H11.7333C12.4466 14.04 13.1466 13.4467 13.2666 12.74L14.1533 7.43333C14.2266 6.96666 13.96 6.25999 13.5933 5.96666L8.97331 2.27333C8.70664 2.05999 8.34664 1.95333 7.99331 1.95333Z" fill="#4E5556"/>
</svg>
