<svg width="14" height="14" viewBox="0 0 14 14" fill="none" xmlns="http://www.w3.org/2000/svg">
<path d="M12.8868 4.34L8.52014 0.846666C7.6668 0.166666 6.33347 0.16 5.4868 0.839999L1.12014 4.34C0.493471 4.84 0.113471 5.84 0.246805 6.62667L1.0868 11.6533C1.28014 12.78 2.3268 13.6667 3.4668 13.6667H10.5335C11.6601 13.6667 12.7268 12.76 12.9201 11.6467L13.7601 6.62C13.8801 5.84 13.5001 4.84 12.8868 4.34ZM7.50014 11C7.50014 11.2733 7.27347 11.5 7.00014 11.5C6.7268 11.5 6.50014 11.2733 6.50014 11V9C6.50014 8.72667 6.7268 8.5 7.00014 8.5C7.27347 8.5 7.50014 8.72667 7.50014 9V11Z" fill="white"/>
</svg>
