<svg width="16" height="16" viewBox="0 0 16 16" fill="none" xmlns="http://www.w3.org/2000/svg">
<path d="M14.6667 5.68V2.65333C14.6667 1.71333 14.24 1.33333 13.18 1.33333H10.4867C9.42667 1.33333 9 1.71333 9 2.65333V5.67333C9 6.62 9.42667 6.99333 10.4867 6.99333H13.18C14.24 7 14.6667 6.62 14.6667 5.68Z" fill="white"/>
<path d="M14.6667 13.18V10.4867C14.6667 9.42667 14.24 9 13.18 9H10.4867C9.42667 9 9 9.42667 9 10.4867V13.18C9 14.24 9.42667 14.6667 10.4867 14.6667H13.18C14.24 14.6667 14.6667 14.24 14.6667 13.18Z" fill="white"/>
<path d="M7.00016 5.68V2.65333C7.00016 1.71333 6.5735 1.33333 5.5135 1.33333H2.82016C1.76016 1.33333 1.3335 1.71333 1.3335 2.65333V5.67333C1.3335 6.62 1.76016 6.99333 2.82016 6.99333H5.5135C6.5735 7 7.00016 6.62 7.00016 5.68Z" fill="white"/>
<path d="M7.00016 13.18V10.4867C7.00016 9.42667 6.5735 9 5.5135 9H2.82016C1.76016 9 1.3335 9.42667 1.3335 10.4867V13.18C1.3335 14.24 1.76016 14.6667 2.82016 14.6667H5.5135C6.5735 14.6667 7.00016 14.24 7.00016 13.18Z" fill="white"/>
</svg>
