<svg width="16" height="16" viewBox="0 0 16 16" fill="none" xmlns="http://www.w3.org/2000/svg">
<path d="M13.18 7.49999H10.4867C9.14667 7.49999 8.5 6.90666 8.5 5.68V2.65333C8.5 1.42666 9.15333 0.833328 10.4867 0.833328H13.18C14.52 0.833328 15.1667 1.42666 15.1667 2.65333V5.67333C15.1667 6.90666 14.5133 7.49999 13.18 7.49999ZM10.4867 1.83333C9.59333 1.83333 9.5 2.08666 9.5 2.65333V5.67333C9.5 6.24666 9.59333 6.49333 10.4867 6.49333H13.18C14.0733 6.49333 14.1667 6.23999 14.1667 5.67333V2.65333C14.1667 2.07999 14.0733 1.83333 13.18 1.83333H10.4867Z" fill="#4E5556"/>
<path d="M13.18 15.1667H10.4867C9.14667 15.1667 8.5 14.5133 8.5 13.18V10.4867C8.5 9.14667 9.15333 8.5 10.4867 8.5H13.18C14.52 8.5 15.1667 9.15333 15.1667 10.4867V13.18C15.1667 14.5133 14.5133 15.1667 13.18 15.1667ZM10.4867 9.5C9.7 9.5 9.5 9.7 9.5 10.4867V13.18C9.5 13.9667 9.7 14.1667 10.4867 14.1667H13.18C13.9667 14.1667 14.1667 13.9667 14.1667 13.18V10.4867C14.1667 9.7 13.9667 9.5 13.18 9.5H10.4867Z" fill="#4E5556"/>
<path d="M5.5135 7.49999H2.82016C1.48016 7.49999 0.833496 6.90666 0.833496 5.68V2.65333C0.833496 1.42666 1.48683 0.833328 2.82016 0.833328H5.5135C6.8535 0.833328 7.50016 1.42666 7.50016 2.65333V5.67333C7.50016 6.90666 6.84683 7.49999 5.5135 7.49999ZM2.82016 1.83333C1.92683 1.83333 1.8335 2.08666 1.8335 2.65333V5.67333C1.8335 6.24666 1.92683 6.49333 2.82016 6.49333H5.5135C6.40683 6.49333 6.50016 6.23999 6.50016 5.67333V2.65333C6.50016 2.07999 6.40683 1.83333 5.5135 1.83333H2.82016Z" fill="#4E5556"/>
<path d="M5.5135 15.1667H2.82016C1.48016 15.1667 0.833496 14.5133 0.833496 13.18V10.4867C0.833496 9.14667 1.48683 8.5 2.82016 8.5H5.5135C6.8535 8.5 7.50016 9.15333 7.50016 10.4867V13.18C7.50016 14.5133 6.84683 15.1667 5.5135 15.1667ZM2.82016 9.5C2.0335 9.5 1.8335 9.7 1.8335 10.4867V13.18C1.8335 13.9667 2.0335 14.1667 2.82016 14.1667H5.5135C6.30016 14.1667 6.50016 13.9667 6.50016 13.18V10.4867C6.50016 9.7 6.30016 9.5 5.5135 9.5H2.82016Z" fill="#4E5556"/>
</svg>
