<svg width="16" height="16" viewBox="0 0 16 16" fill="none" xmlns="http://www.w3.org/2000/svg">
<path d="M10.8332 15C11.4775 15 11.9998 14.4777 11.9998 13.8333C11.9998 13.189 11.4775 12.6667 10.8332 12.6667C10.1888 12.6667 9.6665 13.189 9.6665 13.8333C9.6665 14.4777 10.1888 15 10.8332 15Z" fill="white"/>
<path d="M5.50016 15C6.14449 15 6.66683 14.4777 6.66683 13.8333C6.66683 13.189 6.14449 12.6667 5.50016 12.6667C4.85583 12.6667 4.3335 13.189 4.3335 13.8333C4.3335 14.4777 4.85583 15 5.50016 15Z" fill="white"/>
<path d="M3.22683 2.62667L3.0935 4.26C3.06683 4.57334 3.3135 4.83334 3.62683 4.83334H13.8335C14.1135 4.83334 14.3468 4.62 14.3668 4.34C14.4535 3.16 13.5535 2.2 12.3735 2.2H4.18016C4.1135 1.90667 3.98016 1.62667 3.7735 1.39334C3.44016 1.04 2.9735 0.833336 2.4935 0.833336H1.3335C1.06016 0.833336 0.833496 1.06 0.833496 1.33334C0.833496 1.60667 1.06016 1.83334 1.3335 1.83334H2.4935C2.70016 1.83334 2.8935 1.92 3.0335 2.06667C3.1735 2.22 3.24016 2.42 3.22683 2.62667Z" fill="white"/>
<path d="M13.6732 5.83334H3.44654C3.16654 5.83334 2.93987 6.04667 2.91321 6.32L2.67321 9.22C2.57987 10.36 3.47321 11.3333 4.61321 11.3333H12.0265C13.0265 11.3333 13.9065 10.5133 13.9799 9.51334L14.1999 6.4C14.2265 6.09334 13.9865 5.83334 13.6732 5.83334Z" fill="white"/>
</svg>
