<svg width="35" height="35" viewBox="0 0 35 35" fill="none" xmlns="http://www.w3.org/2000/svg">
<rect width="35" height="35" fill="white"/>
<g clip-path="url(#clip0_68_1648)">
<path d="M18.6406 3.40537L22.741 11.7135L31.9095 13.0457C32.9528 13.1973 33.3694 14.4795 32.6145 15.2154L25.98 21.6823L27.5461 30.8137C27.7244 31.8528 26.6337 32.6453 25.7006 32.1547L17.4999 27.8434L9.29939 32.1547C8.36625 32.6452 7.27556 31.8528 7.45381 30.8137L9.01997 21.6823L2.38551 15.2154C1.63056 14.4794 2.04718 13.1973 3.09052 13.0457L12.259 11.7134L16.3593 3.40537C16.8259 2.45993 18.174 2.45993 18.6406 3.40537Z" fill="url(#paint0_linear_68_1648)"/>
<path d="M22.7409 11.7134L18.6406 3.40535C18.4074 2.93266 17.9537 2.69629 17.5 2.69629V18.4256L22.7409 11.7134Z" fill="url(#paint1_linear_68_1648)"/>
<path d="M25.98 21.6821L32.6144 15.2151C32.9868 14.8521 33.0737 14.3563 32.9413 13.9287L17.4999 18.4254L25.98 21.6821Z" fill="url(#paint2_linear_68_1648)"/>
<path d="M27.0439 32.0551L17.4999 18.4258V27.8436L25.7005 32.1549C26.1688 32.401 26.6766 32.324 27.0439 32.0551Z" fill="url(#paint3_linear_68_1648)"/>
<path d="M17.5 18.4258L9.01991 21.6825L7.45381 30.8139C7.36499 31.3316 7.59131 31.7879 7.95599 32.0551L17.5 18.4258Z" fill="url(#paint4_linear_68_1648)"/>
<path d="M2.05859 13.9289L17.4999 18.4256L12.259 11.7134L3.09049 13.0457C2.56186 13.1225 2.19458 13.4897 2.05859 13.9289Z" fill="url(#paint5_linear_68_1648)"/>
<path d="M9.01997 21.6826L2.38551 15.2156C2.01309 14.8526 1.92621 14.3568 2.05862 13.9292L17.5 18.4259L9.01997 21.6826Z" fill="url(#paint6_linear_68_1648)"/>
</g>
<defs>
<linearGradient id="paint0_linear_68_1648" x1="17.5005" y1="6.1492" x2="17.5005" y2="40.3541" gradientUnits="userSpaceOnUse">
<stop stop-color="#FFCF95"/>
<stop offset="0.427" stop-color="#FFC954"/>
<stop offset="1" stop-color="#FFC200"/>
</linearGradient>
<linearGradient id="paint1_linear_68_1648" x1="25.5348" y1="10.5601" x2="15.1948" y2="10.5601" gradientUnits="userSpaceOnUse">
<stop stop-color="#FFC200" stop-opacity="0"/>
<stop offset="0.203" stop-color="#FFBB00" stop-opacity="0.203"/>
<stop offset="0.499" stop-color="#FFA700" stop-opacity="0.499"/>
<stop offset="0.852" stop-color="#FF8800" stop-opacity="0.852"/>
<stop offset="1" stop-color="#FF7800"/>
</linearGradient>
<linearGradient id="paint2_linear_68_1648" x1="27.3012" y1="26.4023" x2="24.5628" y2="12.9169" gradientUnits="userSpaceOnUse">
<stop stop-color="#FFC200" stop-opacity="0"/>
<stop offset="0.203" stop-color="#FFBB00" stop-opacity="0.203"/>
<stop offset="0.499" stop-color="#FFA700" stop-opacity="0.499"/>
<stop offset="0.852" stop-color="#FF8800" stop-opacity="0.852"/>
<stop offset="1" stop-color="#FF7800"/>
</linearGradient>
<linearGradient id="paint3_linear_68_1648" x1="14.0232" y1="33.4895" x2="24.7482" y2="22.7645" gradientUnits="userSpaceOnUse">
<stop stop-color="#FFC200" stop-opacity="0"/>
<stop offset="0.203" stop-color="#FFBB00" stop-opacity="0.203"/>
<stop offset="0.499" stop-color="#FFA700" stop-opacity="0.499"/>
<stop offset="0.852" stop-color="#FF8800" stop-opacity="0.852"/>
<stop offset="1" stop-color="#FF7800"/>
</linearGradient>
<linearGradient id="paint4_linear_68_1648" x1="6.37501" y1="19.9267" x2="14.2802" y2="26.5402" gradientUnits="userSpaceOnUse">
<stop stop-color="#FFC200" stop-opacity="0"/>
<stop offset="0.203" stop-color="#FFBB00" stop-opacity="0.203"/>
<stop offset="0.499" stop-color="#FFA700" stop-opacity="0.499"/>
<stop offset="0.852" stop-color="#FF8800" stop-opacity="0.852"/>
<stop offset="1" stop-color="#FF7800"/>
</linearGradient>
<linearGradient id="paint5_linear_68_1648" x1="12.301" y1="9.0173" x2="9.09761" y2="18.1109" gradientUnits="userSpaceOnUse">
<stop stop-color="#FFC200" stop-opacity="0"/>
<stop offset="0.203" stop-color="#FFBB00" stop-opacity="0.203"/>
<stop offset="0.499" stop-color="#FFA700" stop-opacity="0.499"/>
<stop offset="0.852" stop-color="#FF8800" stop-opacity="0.852"/>
<stop offset="1" stop-color="#FF7800"/>
</linearGradient>
<linearGradient id="paint6_linear_68_1648" x1="24.3595" y1="9.96723" x2="0.82471" y2="19.9908" gradientUnits="userSpaceOnUse">
<stop stop-color="#FFC200" stop-opacity="0"/>
<stop offset="0.203" stop-color="#FFBB00" stop-opacity="0.203"/>
<stop offset="0.499" stop-color="#FFA700" stop-opacity="0.499"/>
<stop offset="0.852" stop-color="#FF8800" stop-opacity="0.852"/>
<stop offset="1" stop-color="#FF7800"/>
</linearGradient>
<clipPath id="clip0_68_1648">
<rect width="31" height="31" fill="white" transform="translate(2 2)"/>
</clipPath>
</defs>
</svg>
